#Comment line ignore any data following # character 
#Hierarchical Translation and Rotation (.htr) file 
[Header]	
#Header keywords are followed by a single value 
FileType HTR		#Single word string
DataType HTRS		#Translation followed by rotation and scale data
FileVersion 1		#integer
NumSegments 84		#integer
NumFrames 2		#integer
DataFrameRate 30		#integer, data frame rate in this file
EulerRotationOrder ZYX
CalibrationUnits mm
RotationUnits Degrees
GlobalAxisofGravity Y
BoneLengthAxis Y
ScaleFactor 1.00
[SegmentNames&Hierarchy]
#CHILD	PARENT
MASTER GLOBAL
root MASTER
chest root
L_mid_tent01 root
R_mid_tent01 root
spine01 root
Bip01_Neck chest
L_humerus chest
R_humerus chest
weapon_bone chest
Bip01_Head Bip01_Neck
eye_left_bone Bip01_Head
eye_right_bone Bip01_Head
L_forearm L_humerus
L_front_hand L_forearm
L_weapon_bone L_forearm
L_front_hand01_01 L_front_hand
L_front_hand02_01 L_front_hand
L_front_hand03_01 L_front_hand
L_front_hand01_02 L_front_hand01_01
L_front_hand02_02 L_front_hand02_01
L_front_hand03_02 L_front_hand03_01
R_forearm R_humerus
R_front_hand R_forearm
R_weapon_bone R_forearm
R_front_hand01_01 R_front_hand
R_front_hand02_01 R_front_hand
R_front_hand03_01 R_front_hand
R_front_hand01_02 R_front_hand01_01
R_front_hand02_02 R_front_hand02_01
R_front_hand03_02 R_front_hand03_01
null_rope01_connect L_mid_tent01
Rope1_Seg01 null_rope01_connect
Rope1_Seg02 Rope1_Seg01
Rope1_Seg03 Rope1_Seg02
Rope1_Seg04 Rope1_Seg03
Rope1_Seg05 Rope1_Seg04
Rope1_Seg06 Rope1_Seg05
Rope1_Seg07 Rope1_Seg06
Rope1_Seg09 Rope1_Seg07
L_mid_hand01 Rope1_Seg09
L_mid_hand02 Rope1_Seg09
L_mid_hand03 Rope1_Seg09
null_rope02_connect R_mid_tent01
Rope2_Seg01 null_rope02_connect
Rope2_Seg02 Rope2_Seg01
Rope2_Seg03 Rope2_Seg02
Rope2_Seg04 Rope2_Seg03
Rope2_Seg05 Rope2_Seg04
Rope2_Seg06 Rope2_Seg05
Rope2_Seg07 Rope2_Seg06
Rope2_Seg09 Rope2_Seg07
R_mid_hand01 Rope2_Seg09
R_mid_hand02 Rope2_Seg09
R_mid_hand03 Rope2_Seg09
spine02 spine01
spine03 spine02
pelvis spine03
null_rope03_connect pelvis
null_rope04_connect pelvis
Rope3_Seg01 null_rope03_connect
Rope3_Seg02 Rope3_Seg01
Rope3_Seg03 Rope3_Seg02
Rope3_Seg04 Rope3_Seg03
Rope3_Seg05 Rope3_Seg04
Rope3_Seg06 Rope3_Seg05
Rope3_Seg07 Rope3_Seg06
Rope3_Seg08 Rope3_Seg07
Rope3_Seg09 Rope3_Seg08
R_rear_hand01 Rope3_Seg09
R_rear_hand02 Rope3_Seg09
R_rear_hand03 Rope3_Seg09
Rope4_Seg01 null_rope04_connect
Rope4_Seg02 Rope4_Seg01
Rope4_Seg03 Rope4_Seg02
Rope4_Seg04 Rope4_Seg03
Rope4_Seg05 Rope4_Seg04
Rope4_Seg06 Rope4_Seg05
Rope4_Seg07 Rope4_Seg06
Rope4_Seg08 Rope4_Seg07
Rope4_Seg09 Rope4_Seg08
L_rear_hand01 Rope4_Seg09
L_rear_hand02 Rope4_Seg09
L_rear_hand03 Rope4_Seg09
[BasePosition]
#SegmentName Tx, Ty, Tz, Rx, Ry, Rz, BoneLength
MASTER 0.000000 0.000000 0.000000 -90.000000 0.000000 0.000000 10.000000 
root 0.000000 0.000000 0.000000 0.000000 0.000000 0.000000 10.000000 
chest 0.000000 0.000000 0.000000 0.000000 0.000000 0.000000 10.000000 
L_mid_tent01 0.000000 0.000000 0.000000 0.000000 0.000000 0.000000 10.000000 
R_mid_tent01 0.000000 0.000000 0.000000 0.000000 0.000000 0.000000 10.000000 
spine01 0.000000 0.000000 0.000000 0.000000 0.000000 0.000000 10.000000 
Bip01_Neck 0.000000 0.000000 0.000000 0.000000 0.000000 0.000000 10.000000 
L_humerus 0.000000 0.000000 0.000000 0.000000 0.000000 0.000000 10.000000 
R_humerus 0.000000 0.000000 0.000000 0.000000 0.000000 0.000000 10.000000 
weapon_bone 0.000000 0.000000 0.000000 0.000000 0.000000 0.000000 10.000000 
Bip01_Head 0.000000 0.000000 0.000000 0.000000 0.000000 0.000000 10.000000 
eye_left_bone 0.000000 0.000000 0.000000 0.000000 0.000000 0.000000 10.000000 
eye_right_bone 0.000000 0.000000 0.000000 0.000000 0.000000 0.000000 10.000000 
L_forearm 0.000000 0.000000 0.000000 0.000000 0.000000 0.000000 10.000000 
L_front_hand 0.000000 0.000000 0.000000 0.000000 0.000000 0.000000 10.000000 
L_weapon_bone 0.000000 0.000000 0.000000 0.000000 0.000000 0.000000 10.000000 
L_front_hand01_01 0.000000 0.000000 0.000000 0.000000 0.000000 0.000000 10.000000 
L_front_hand02_01 0.000000 0.000000 0.000000 0.000000 0.000000 0.000000 10.000000 
L_front_hand03_01 0.000000 0.000000 0.000000 0.000000 0.000000 0.000000 10.000000 
L_front_hand01_02 0.000000 0.000000 0.000000 0.000000 0.000000 0.000000 10.000000 
L_front_hand02_02 0.000000 0.000000 0.000000 0.000000 0.000000 0.000000 10.000000 
L_front_hand03_02 0.000000 0.000000 0.000000 0.000000 0.000000 0.000000 10.000000 
R_forearm 0.000000 0.000000 0.000000 0.000000 0.000000 0.000000 10.000000 
R_front_hand 0.000000 0.000000 0.000000 0.000000 0.000000 0.000000 10.000000 
R_weapon_bone 0.000000 0.000000 0.000000 0.000000 0.000000 0.000000 10.000000 
R_front_hand01_01 0.000000 0.000000 0.000000 0.000000 0.000000 0.000000 10.000000 
R_front_hand02_01 0.000000 0.000000 0.000000 0.000000 0.000000 0.000000 10.000000 
R_front_hand03_01 0.000000 0.000000 0.000000 0.000000 0.000000 0.000000 10.000000 
R_front_hand01_02 0.000000 0.000000 0.000000 0.000000 0.000000 0.000000 10.000000 
R_front_hand02_02 0.000000 0.000000 0.000000 0.000000 0.000000 0.000000 10.000000 
R_front_hand03_02 0.000000 0.000000 0.000000 0.000000 0.000000 0.000000 10.000000 
null_rope01_connect 0.000000 0.000000 0.000000 0.000000 0.000000 0.000000 10.000000 
Rope1_Seg01 0.000000 0.000000 0.000000 0.000000 0.000000 0.000000 10.000000 
Rope1_Seg02 0.000000 0.000000 0.000000 0.000000 0.000000 0.000000 10.000000 
Rope1_Seg03 0.000000 0.000000 0.000000 0.000000 0.000000 0.000000 10.000000 
Rope1_Seg04 0.000000 0.000000 0.000000 0.000000 0.000000 0.000000 10.000000 
Rope1_Seg05 0.000000 0.000000 0.000000 0.000000 0.000000 0.000000 10.000000 
Rope1_Seg06 0.000000 0.000000 0.000000 0.000000 0.000000 0.000000 10.000000 
Rope1_Seg07 0.000000 0.000000 0.000000 0.000000 0.000000 0.000000 10.000000 
Rope1_Seg09 0.000000 0.000000 0.000000 0.000000 0.000000 0.000000 10.000000 
L_mid_hand01 0.000000 0.000000 0.000000 0.000000 0.000000 0.000000 10.000000 
L_mid_hand02 0.000000 0.000000 0.000000 0.000000 0.000000 0.000000 10.000000 
L_mid_hand03 0.000000 0.000000 0.000000 0.000000 0.000000 0.000000 10.000000 
null_rope02_connect 0.000000 0.000000 0.000000 0.000000 0.000000 0.000000 10.000000 
Rope2_Seg01 0.000000 0.000000 0.000000 0.000000 0.000000 0.000000 10.000000 
Rope2_Seg02 0.000000 0.000000 0.000000 0.000000 0.000000 0.000000 10.000000 
Rope2_Seg03 0.000000 0.000000 0.000000 0.000000 0.000000 0.000000 10.000000 
Rope2_Seg04 0.000000 0.000000 0.000000 0.000000 0.000000 0.000000 10.000000 
Rope2_Seg05 0.000000 0.000000 0.000000 0.000000 0.000000 0.000000 10.000000 
Rope2_Seg06 0.000000 0.000000 0.000000 0.000000 0.000000 0.000000 10.000000 
Rope2_Seg07 0.000000 0.000000 0.000000 0.000000 0.000000 0.000000 10.000000 
Rope2_Seg09 0.000000 0.000000 0.000000 0.000000 0.000000 0.000000 10.000000 
R_mid_hand01 0.000000 0.000000 0.000000 0.000000 0.000000 0.000000 10.000000 
R_mid_hand02 0.000000 0.000000 0.000000 0.000000 0.000000 0.000000 10.000000 
R_mid_hand03 0.000000 0.000000 0.000000 0.000000 0.000000 0.000000 10.000000 
spine02 0.000000 0.000000 0.000000 0.000000 0.000000 0.000000 10.000000 
spine03 0.000000 0.000000 0.000000 0.000000 0.000000 0.000000 10.000000 
pelvis 0.000000 0.000000 0.000000 0.000000 0.000000 0.000000 10.000000 
null_rope03_connect 0.000000 0.000000 0.000000 0.000000 0.000000 0.000000 10.000000 
null_rope04_connect 0.000000 0.000000 0.000000 0.000000 0.000000 0.000000 10.000000 
Rope3_Seg01 0.000000 0.000000 0.000000 0.000000 0.000000 0.000000 10.000000 
Rope3_Seg02 0.000000 0.000000 0.000000 0.000000 0.000000 0.000000 10.000000 
Rope3_Seg03 0.000000 0.000000 0.000000 0.000000 0.000000 0.000000 10.000000 
Rope3_Seg04 0.000000 0.000000 0.000000 0.000000 0.000000 0.000000 10.000000 
Rope3_Seg05 0.000000 0.000000 0.000000 0.000000 0.000000 0.000000 10.000000 
Rope3_Seg06 0.000000 0.000000 0.000000 0.000000 0.000000 0.000000 10.000000 
Rope3_Seg07 0.000000 0.000000 0.000000 0.000000 0.000000 0.000000 10.000000 
Rope3_Seg08 0.000000 0.000000 0.000000 0.000000 0.000000 0.000000 10.000000 
Rope3_Seg09 0.000000 0.000000 0.000000 0.000000 0.000000 0.000000 10.000000 
R_rear_hand01 0.000000 0.000000 0.000000 0.000000 0.000000 0.000000 10.000000 
R_rear_hand02 0.000000 0.000000 0.000000 0.000000 0.000000 0.000000 10.000000 
R_rear_hand03 0.000000 0.000000 0.000000 0.000000 0.000000 0.000000 10.000000 
Rope4_Seg01 0.000000 0.000000 0.000000 0.000000 0.000000 0.000000 10.000000 
Rope4_Seg02 0.000000 0.000000 0.000000 0.000000 0.000000 0.000000 10.000000 
Rope4_Seg03 0.000000 0.000000 0.000000 0.000000 0.000000 0.000000 10.000000 
Rope4_Seg04 0.000000 0.000000 0.000000 0.000000 0.000000 0.000000 10.000000 
Rope4_Seg05 0.000000 0.000000 0.000000 0.000000 0.000000 0.000000 10.000000 
Rope4_Seg06 0.000000 0.000000 0.000000 0.000000 0.000000 0.000000 10.000000 
Rope4_Seg07 0.000000 0.000000 0.000000 0.000000 0.000000 0.000000 10.000000 
Rope4_Seg08 0.000000 0.000000 0.000000 0.000000 0.000000 0.000000 10.000000 
Rope4_Seg09 0.000000 0.000000 0.000000 0.000000 0.000000 0.000000 10.000000 
L_rear_hand01 0.000000 0.000000 0.000000 0.000000 0.000000 0.000000 10.000000 
L_rear_hand02 0.000000 0.000000 0.000000 0.000000 0.000000 0.000000 10.000000 
L_rear_hand03 0.000000 0.000000 0.000000 0.000000 0.000000 0.000000 10.000000 
#Beginning of Data. Separated by tabs
#Fr	Tx	Ty	Tz	Rx	Ry	Rz	SF
[MASTER]
11 -1747.519775 1597.324341 1022.346741 0.001660 0.001660 0.001660 2578.849121
12 -1954.118652 1752.679688 1057.156494 0.001660 0.001660 0.001660 2829.848877
[root]
11 68.622650 -32.547520 1280.398071 -128.801941 -18.312563 -56.134979 1282.648682
12 100.027916 13.719787 1224.285889 -137.258484 -17.205414 -60.350193 1228.441895
[chest]
11 -84.512650 -34.090519 0.000000 -15.954294 -8.850378 173.170395 91.129311
12 -84.512650 -34.090519 0.000000 -19.309479 -11.048570 173.707657 91.129311
[L_mid_tent01]
11 27.299046 22.179079 -249.918716 -0.942395 15.651793 68.769485 252.381683
12 27.299042 22.179077 -249.918732 -2.000525 21.339958 67.299889 252.381699
[R_mid_tent01]
11 23.228794 24.509907 226.238495 171.441574 -25.223778 62.099098 228.744751
12 23.228794 24.509907 226.238495 172.152344 -19.969435 60.755344 228.744751
[spine01]
11 -0.361383 -0.195265 0.000000 0.001956 0.001298 22.850199 0.410763
12 -0.361383 -0.195265 0.000000 0.001956 0.001297 22.892246 0.410763
[Bip01_Neck]
11 165.484543 71.581718 0.000119 176.643677 -1.657967 43.431915 180.302734
12 165.484543 71.581718 0.000119 176.643677 -1.657967 43.431911 180.302734
[L_humerus]
11 -13.983130 -135.272980 -120.471481 136.646896 77.279266 -132.405533 181.680161
12 -13.983130 -135.272980 -120.471481 126.354591 79.409706 -142.883469 181.680161
[R_humerus]
11 -13.983309 -135.273102 125.287651 -168.432098 -70.511063 -96.732071 184.909012
12 -13.983309 -135.273102 125.287651 -168.409836 -71.993828 -96.750862 184.909012
[weapon_bone]
11 235.964890 -300.705902 0.000000 0.000000 -89.951546 -128.212341 382.234833
12 235.964890 -300.705902 0.000000 0.000000 -89.951546 -128.212341 382.234833
[Bip01_Head]
11 213.611435 185.250473 17.782139 14.374022 1.892701 -43.876289 283.308655
12 213.673691 185.076599 20.027466 16.339571 -0.409892 -43.892750 283.391785
[eye_left_bone]
11 -24.626970 125.451866 -64.772606 0.000000 -90.000000 -99.840431 143.318359
12 -24.626970 125.451866 -64.772606 0.000000 -90.000000 -99.840431 143.318359
[eye_right_bone]
11 -24.626970 125.451866 64.327362 0.000000 -89.980217 80.156380 143.117676
12 -24.626970 125.451866 64.327362 0.000000 -89.965736 80.156380 143.117676
[L_forearm]
11 322.776093 0.000000 -0.000119 0.000124 -0.002344 -96.067146 322.776093
12 322.776093 0.000000 -0.000119 0.000127 -0.002344 -96.186752 322.776093
[L_front_hand]
11 241.149185 -0.042021 -3.300071 178.169632 -1.833242 -27.424309 241.171753
12 241.149185 -0.042021 -3.300071 177.156860 -1.836222 -27.423271 241.171753
[L_weapon_bone]
11 156.183838 0.000000 0.000000 0.000014 0.000007 0.000001 156.183838
12 156.183838 0.000000 0.000000 0.000014 0.000007 0.000001 156.183838
[L_front_hand01_01]
11 86.095154 20.947098 -0.655860 -0.349888 -0.489669 73.293884 88.609184
12 86.095154 20.947098 -0.655860 -0.335851 -0.499728 71.888641 88.609184
[L_front_hand02_01]
11 86.935165 -11.437475 24.513514 151.249344 -58.927792 -57.708103 91.046425
12 86.935165 -11.437475 24.513514 149.260529 -58.235107 -55.379070 91.046425
[L_front_hand03_01]
11 86.637497 -14.123976 -20.424902 -150.990372 57.154175 -59.243546 90.126129
12 86.637497 -14.123976 -20.424902 -149.134567 56.449898 -57.022202 90.126129
[L_front_hand01_02]
11 71.020905 -0.000179 0.000030 0.000320 -0.002325 -105.686127 71.020905
12 71.020905 -0.000179 0.000030 0.000319 -0.002325 -105.638527 71.020905
[L_front_hand02_02]
11 71.020927 -0.000119 0.000060 0.000320 -0.002325 -105.686127 71.020927
12 71.020927 -0.000119 0.000060 0.000319 -0.002325 -105.638527 71.020927
[L_front_hand03_02]
11 71.020905 -0.000060 0.000060 0.000320 -0.002325 -105.686127 71.020905
12 71.020905 -0.000060 0.000060 0.000319 -0.002325 -105.638527 71.020905
[R_forearm]
11 322.776428 -0.000060 0.000030 0.209474 0.013067 -94.601791 322.776428
12 322.776428 -0.000060 0.000030 0.211135 0.015107 -94.722786 322.776428
[R_front_hand]
11 238.847015 -0.006795 2.210259 -3.158339 -10.646513 -26.312817 238.857239
12 238.847015 -0.006795 2.210259 -3.334315 -10.647277 -26.312857 238.857239
[R_weapon_bone]
11 155.664093 0.002503 -0.000030 0.003487 0.001180 -90.988930 155.664078
12 155.664093 0.002503 -0.000030 0.003487 0.001180 -90.988930 155.664078
[R_front_hand01_01]
11 87.624611 14.231146 22.918642 -149.707169 -58.394505 56.007458 91.683487
12 87.624611 14.231146 22.918642 -146.976166 -57.336147 52.779388 91.683487
[R_front_hand02_01]
11 89.356956 14.367283 -19.491137 149.983444 56.758789 58.275921 92.579636
12 89.356956 14.367283 -19.491137 147.400665 55.711205 55.166904 92.579636
[R_front_hand03_01]
11 87.286232 -22.307278 -0.143439 0.134949 -0.432464 -72.452232 90.091743
12 87.286232 -22.307278 -0.143439 0.123256 -0.437630 -70.429710 90.091743
[R_front_hand01_02]
11 71.020905 0.000060 0.000119 0.002323 -0.000334 106.381714 71.020905
12 71.020905 0.000060 0.000119 0.002323 -0.000334 106.381714 71.020905
[R_front_hand02_02]
11 71.020844 -0.000030 -0.000119 0.002323 -0.000334 106.381714 71.020836
12 71.020844 -0.000030 -0.000119 0.002323 -0.000334 106.381714 71.020836
[R_front_hand03_02]
11 71.020905 0.000000 0.000030 0.002323 -0.000334 106.381714 71.020905
12 71.020905 0.000000 0.000030 0.002323 -0.000334 106.381714 71.020905
[null_rope01_connect]
11 328.732483 0.000000 -0.000238 175.836426 -42.335068 -119.521294 328.732483
12 328.732483 0.000000 -0.000238 -170.578110 -30.799223 -129.557129 328.732483
[Rope1_Seg01]
11 -0.000007 -0.000031 0.000153 17.727943 -6.815277 -131.482910 0.000156
12 -0.000008 -0.000031 0.000153 -49.283455 -27.639194 -137.469101 0.000156
[Rope1_Seg02]
11 139.999863 -0.000179 0.000000 -24.802267 -4.188552 -21.370415 139.999863
12 139.999863 -0.000179 0.000000 5.364455 30.990969 -21.216763 139.999863
[Rope1_Seg03]
11 139.999924 0.000060 -0.000060 -7.192480 6.836807 -19.187654 139.999924
12 139.999924 0.000060 -0.000060 -1.536932 16.226360 -16.242216 139.999924
[Rope1_Seg04]
11 139.999924 -0.000060 -0.000119 -6.657390 5.524075 -29.987253 139.999924
12 139.999924 -0.000060 -0.000119 -1.974095 6.647636 -21.028967 139.999924
[Rope1_Seg05]
11 139.999832 0.000119 -0.000060 -0.295423 3.562596 -16.511961 139.999832
12 139.999832 0.000119 -0.000060 0.471292 3.702101 -10.657190 139.999832
[Rope1_Seg06]
11 139.999954 0.000119 -0.000060 0.544387 1.637016 -6.389377 139.999954
12 139.999954 0.000119 -0.000060 0.617235 2.111410 -5.559029 139.999954
[Rope1_Seg07]
11 139.999985 0.000060 0.000000 0.497761 0.893345 -3.645137 139.999985
12 139.999985 0.000060 0.000000 0.552288 1.265260 -3.459950 139.999985
[Rope1_Seg09]
11 121.602913 0.000119 -0.000089 -89.793175 -1.359789 0.847147 121.602913
12 121.602913 0.000119 -0.000089 -89.793175 -1.359789 0.847147 121.602913
[L_mid_hand01]
11 103.859421 1.038730 8.195221 115.405022 -54.702576 -21.718946 104.187431
12 103.859421 1.038730 8.195221 112.987701 -50.601227 -18.681456 104.187431
[L_mid_hand02]
11 105.572853 -4.139662 -10.864139 -156.173538 38.796768 -54.226353 106.211075
12 105.572853 -4.139662 -10.864139 -153.018723 36.866009 -49.082401 106.211075
[L_mid_hand03]
11 104.641464 17.579376 -3.913581 -10.557028 15.605442 59.191399 106.179977
12 104.641464 17.579376 -3.913581 -11.755013 14.733717 54.618225 106.179977
[null_rope02_connect]
11 328.732849 0.000179 -0.000119 -58.397606 38.273186 72.229050 328.732849
12 328.732849 0.000179 -0.000119 -40.080471 39.639423 89.024445 328.732849
[Rope2_Seg01]
11 0.000045 0.000149 0.000028 13.266077 10.509238 -48.319599 0.000158
12 0.000046 0.000153 0.000031 21.706274 19.620045 -44.233166 0.000162
[Rope2_Seg02]
11 139.999741 -0.000060 -0.000119 21.440174 32.276051 10.574556 139.999756
12 139.999741 -0.000060 -0.000119 7.892011 38.801109 -1.245974 139.999756
[Rope2_Seg03]
11 140.000107 0.000030 0.000000 4.154083 19.648975 2.087503 140.000107
12 140.000107 0.000030 0.000000 0.881935 12.457298 0.361613 140.000107
[Rope2_Seg04]
11 139.999802 0.000000 -0.000060 0.655199 7.080056 0.631867 139.999802
12 139.999802 0.000000 -0.000060 -0.048688 5.800288 -1.189312 139.999802
[Rope2_Seg05]
11 139.999985 -0.000060 0.000119 -0.435659 10.114582 -4.546322 139.999985
12 139.999985 -0.000060 0.000119 -0.629896 12.284573 -5.863665 139.999985
[Rope2_Seg06]
11 139.999893 -0.000030 -0.000119 -4.203150 32.084797 -21.608192 139.999893
12 139.999893 -0.000030 -0.000119 -5.301664 37.986858 -24.110113 139.999893
[Rope2_Seg07]
11 139.999893 0.000060 -0.000060 14.301663 30.624355 -21.687708 139.999893
12 139.999893 0.000060 -0.000060 77.095734 25.391605 -15.905781 139.999893
[Rope2_Seg09]
11 121.338966 0.000089 -0.000060 33.793236 -1.359788 -0.847141 121.338966
12 121.338966 0.000089 -0.000060 33.793236 -1.359788 -0.847141 121.338966
[R_mid_hand01]
11 104.680779 11.144459 -10.335981 -22.984863 42.734234 60.718655 105.778534
12 104.680779 11.144459 -10.335981 -25.192726 41.648338 57.439434 105.778534
[R_mid_hand02]
11 104.070427 2.443552 8.231699 58.419525 -61.729706 28.969120 104.424065
12 104.070427 2.443552 8.231699 60.800945 -59.436069 26.232430 104.424065
[R_mid_hand03]
11 106.028137 -11.221827 -5.996406 -175.069138 15.041784 -68.893349 106.788818
12 106.028137 -11.221827 -5.996406 -174.361145 14.799507 -66.152634 106.788818
[spine02]
11 129.756927 0.001550 0.000119 -0.996400 -3.936078 6.393410 129.756927
12 129.756927 0.001550 0.000119 -0.985997 -3.937721 6.234465 129.756927
[spine03]
11 78.614014 0.081759 -4.898987 1.056907 4.143920 4.455623 78.766556
12 78.614014 0.081757 -4.898987 1.062611 4.142996 4.544970 78.766556
[pelvis]
11 169.435242 0.051022 0.000000 0.018734 -0.190312 -10.249618 169.435257
12 169.435242 0.051022 0.000000 0.018396 -0.190345 -10.046044 169.435257
[null_rope03_connect]
11 -1.257226 -2.466202 137.391083 155.814835 -48.982662 -59.554039 137.418976
12 -1.257226 -2.466202 137.391083 168.352707 -43.979351 -72.434006 137.418976
[null_rope04_connect]
11 -1.259640 -2.480268 -137.844437 155.814835 -48.982662 -59.554039 137.872513
12 -1.259640 -2.480268 -137.844437 168.352707 -43.979351 -72.434006 137.872513
[Rope3_Seg01]
11 0.000000 0.000000 0.000000 2.644838 -9.143950 -30.753876 0.000000
12 0.000000 0.000000 0.000000 2.103712 -10.737298 -31.754629 0.000000
[Rope3_Seg02]
11 139.999924 -0.000119 0.000060 3.785944 12.374072 17.457737 139.999924
12 139.999924 -0.000119 0.000060 13.606576 17.931259 14.726660 139.999924
[Rope3_Seg03]
11 139.999924 -0.000119 0.000119 165.262802 26.991735 34.918137 139.999924
12 139.999924 -0.000119 0.000119 109.274536 40.539120 19.665533 139.999924
[Rope3_Seg04]
11 139.999924 0.000119 0.000000 11.022783 -8.881029 -27.160841 139.999924
12 139.999924 0.000119 0.000000 18.497602 3.935599 -25.355080 139.999924
[Rope3_Seg05]
11 139.999924 -0.000238 0.000060 7.542309 -0.716096 -20.369524 139.999924
12 139.999924 -0.000238 0.000060 11.296490 9.069332 -20.993118 139.999924
[Rope3_Seg06]
11 139.999893 -0.000119 -0.000060 3.789785 -0.590913 -17.359060 139.999893
12 139.999893 -0.000119 -0.000060 5.653307 7.427532 -23.015675 139.999893
[Rope3_Seg07]
11 139.999771 0.000060 -0.000119 1.102334 -1.737349 -7.836574 139.999771
12 139.999771 0.000060 -0.000119 1.336712 0.828561 -10.399799 139.999771
[Rope3_Seg08]
11 139.999985 -0.000060 0.000000 0.668495 -1.037762 -4.224267 139.999985
12 139.999985 -0.000060 0.000000 0.622599 0.273444 -5.364980 139.999985
[Rope3_Seg09]
11 90.185997 -0.000179 -0.000060 89.793228 -1.359877 -0.847183 90.185997
12 90.185997 -0.000179 -0.000060 89.793228 -1.359877 -0.847183 90.185997
[R_rear_hand01]
11 103.366196 -6.073594 -10.757982 176.780991 -15.726485 -68.152512 104.101845
12 103.366196 -6.073594 -10.757982 178.142578 -16.017054 -65.613960 104.101845
[R_rear_hand02]
11 100.509819 12.039542 -7.992327 -19.192892 34.332623 61.336498 101.543350
12 100.509819 12.039542 -7.992327 -21.205954 33.223911 57.720810 101.543350
[R_rear_hand03]
11 101.539970 5.215704 5.435467 77.403587 -62.983585 15.125125 101.819031
12 101.539970 5.215704 5.435467 78.624985 -59.850563 13.735100 101.819031
[Rope4_Seg01]
11 -0.000019 -0.000055 -0.000153 -103.385315 -11.751360 -65.666382 0.000163
12 -0.000019 -0.000061 -0.000153 -104.395355 -13.229812 -67.026161 0.000165
[Rope4_Seg02]
11 139.999985 0.000060 0.000119 -13.865191 19.197163 -13.830872 139.999985
12 139.999985 0.000060 0.000119 -18.357773 18.330805 -20.570814 139.999985
[Rope4_Seg03]
11 139.999924 0.000000 -0.000238 -12.662202 39.826622 -21.548433 139.999924
12 139.999924 0.000000 -0.000238 -18.689117 39.559387 -31.507147 139.999924
[Rope4_Seg04]
11 139.999985 0.000000 0.000119 2.969681 20.123363 -7.895005 139.999985
12 139.999985 0.000000 0.000119 2.038713 18.839937 -9.595304 139.999985
[Rope4_Seg05]
11 139.999802 -0.000060 -0.000119 6.863891 17.914446 -6.443852 139.999802
12 139.999802 -0.000060 -0.000119 3.997782 12.554939 -5.889290 139.999802
[Rope4_Seg06]
11 139.999924 0.000000 0.000060 22.451441 27.447998 -14.120496 139.999924
12 139.999924 0.000000 0.000060 9.924804 18.482450 -9.854959 139.999924
[Rope4_Seg07]
11 139.999802 0.000000 0.000000 22.193857 11.932730 -15.289181 139.999802
12 139.999802 0.000000 0.000000 13.290058 13.332619 -11.070269 139.999802
[Rope4_Seg08]
11 139.999924 0.000000 0.000119 6.871645 1.808200 -7.094425 139.999924
12 139.999924 0.000000 0.000119 6.531178 4.904396 -6.838005 139.999924
[Rope4_Seg09]
11 90.185791 0.000060 0.000060 -135.617828 2.228885 0.850567 90.185791
12 90.185791 0.000060 0.000060 -135.617828 2.228885 0.850567 90.185791
[L_rear_hand01]
11 101.696655 -8.392275 -7.654577 -28.953402 -26.963970 137.645660 102.329041
12 101.696655 -8.392275 -7.654577 -30.967802 -24.555588 142.276382 102.329041
[L_rear_hand02]
11 102.726799 -1.568258 5.773216 81.888351 45.378387 170.342453 102.900848
12 102.726799 -1.568258 5.773216 82.497200 40.606583 171.238342 102.900848
[L_rear_hand03]
11 104.552910 9.721220 -10.420293 -166.314163 -20.719036 -135.138702 105.519653
12 104.552910 9.721220 -10.420293 -164.603775 -19.511108 -140.104065 105.519653
